<?xml version="1.0" encoding="UTF-8"?>
<svg id="Layer_2" xmlns="http://www.w3.org/2000/svg" viewBox="0 0 512 285.2">
  <defs>
    <style>
      .cls-1 {
        fill: #1d1d1b;
      }
    </style>
  </defs>
  <g id="Layer_1-2" data-name="Layer_1">
    <path class="cls-1" d="M507.45,125.35c-4.16-1.89-8.69-2.65-13.23-2.65-17.38,0-34.01,4.53-49.88,10.96-5.67,2.27-11.34,3.4-17.76,3.02-16.25-.76-32.5-1.51-49.13-1.89-3.4,0-4.53-1.13-5.29-4.53-1.89-13.6-4.16-27.21-6.05-40.81-2.65-24.56-10.96-46.86-24.19-68.02-7.18-11.34-17.01-18.52-30.23-20.41-14.74-2.27-29.48-.38-44.21,1.89-2.27.38-4.16,1.13-6.42,0-6.42-2.65-13.23-3.02-20.03-2.65-20.41,1.13-40.81,4.16-60.46,11.34-13.6,4.91-24.18,13.23-30.99,26.07-7.56,13.23-12.85,27.59-13.98,42.7-.76,9.45-1.51,19.27-2.27,28.72-.38,3.4-1.13,4.53-4.91,3.78-4.91-1.13-9.83-1.89-14.74-2.65-19.65-3.02-39.68-7.56-60.08-6.8-27.59,1.13-47.61,18.89-52.15,46.1-4.16,24.56,1.13,47.61,9.45,70.29,10.96,28.72,30.99,47.61,60.84,55.93,21.54,6.05,43.46,9.07,66.89,9.45,26.07-.38,52.15-4.91,77.09-15.87,35.9-15.87,71.8-32.5,108.08-47.99,54.42-23.05,106.57-50.64,160.98-73.69,8.31-3.4,16.25-7.56,23.81-12.09,4.91-3.78,4.53-7.94-1.13-10.2ZM180.95,37.3c0-4.53,2.65-8.31,5.29-10.58,2.65-2.65,5.67-4.53,8.69-6.05,6.05-3.02,12.47-4.91,18.89-5.67-5.67,3.02-11.34,6.05-16.25,9.83-2.27,1.89-4.53,3.78-6.42,6.05s-2.65,4.53-2.27,6.42c0,1.13.76,1.89.76,3.02.76.76,1.51,1.89,2.27,2.65,1.51,1.13,3.4,1.89,5.67,2.27,4.91.38,10.96-1.13,16.63-3.4,5.67-1.89,11.71-4.53,17.38-6.8l17.38-7.56c6.05-2.65,11.71-4.91,18.14-7.18,6.05-1.89,12.47-4.16,19.27-3.78-6.05,1.89-11.71,5.29-17.01,8.31l-17.01,9.83c-10.96,6.42-22.3,12.47-35.14,17.01-6.42,1.89-12.85,4.16-20.78,3.4-3.78-.38-8.31-2.27-11.34-5.67-1.51-1.51-2.27-3.4-3.02-5.29-.76-2.27-1.51-4.53-1.13-6.8ZM265.22,197.9c-22.67,2.65-45.72,3.4-68.4,1.89-11.34-.76-22.67-2.27-34.01-4.16-5.67-1.13-11.34-2.65-16.63-4.53-2.65-1.13-5.67-2.27-8.31-3.78l-1.89-1.13-1.89-1.51c-1.13-1.13-1.89-2.65-2.65-3.78-3.02-5.67-3.78-11.34-4.16-17.38-.38-5.67,0-11.71.76-17.38,1.51-11.34,3.78-22.67,7.18-33.25-2.27,10.96-4.16,22.3-4.53,33.63-.38,5.67-.38,11.34,0,16.63.76,5.29,1.51,10.96,4.16,15.49l2.27,3.02,1.51,1.13,1.51,1.13c2.27,1.13,4.91,2.27,7.56,3.02,5.29,1.89,10.58,3.02,16.25,4.16,10.96,1.89,22.3,3.02,33.63,3.78,22.67,1.51,44.97,1.13,67.64-.76,11.34-1.13,22.3-2.27,33.63-4.53,10.96-1.89,21.92-4.91,32.88-8.69-21.54,9.45-43.84,13.98-66.51,17.01ZM304.52,77.36c-9.07,1.89-18.89,2.65-28.34.76-4.53-1.13-9.45-3.02-13.23-6.42-3.78-3.4-6.42-8.69-6.42-13.6,0-10.58,8.31-19.27,17.38-20.41-8.69,3.4-14.36,12.09-13.6,20.41.38,4.16,2.27,7.56,5.67,10.2,3.02,2.65,7.18,4.16,11.34,5.29,4.16,1.13,8.69,1.51,13.23,1.13,4.53,0,9.07-.38,13.6-.76,9.07-1.13,18.14-3.02,27.21-4.91-8.69,3.4-17.76,6.42-26.83,8.31Z"/>
  </g>
</svg>
