<?xml version="1.0" encoding="UTF-8"?>
<svg id="Layer_2" xmlns="http://www.w3.org/2000/svg" viewBox="0 0 499.1 278.01">
  <defs>
    <style>
      .cls-1 {
        fill: #1d1d1b;
      }
    </style>
  </defs>
  <g id="Layer_1-2" data-name="Layer_1">
    <path class="cls-1" d="M494.66,122.19c-4.05-1.84-8.47-2.58-12.89-2.58-16.94,0-33.15,4.42-48.62,10.68-5.53,2.21-11.05,3.32-17.31,2.95-15.84-.74-31.68-1.47-47.89-1.84-3.32,0-4.42-1.11-5.16-4.42-1.84-13.26-4.05-26.52-5.89-39.78-2.58-23.94-10.68-45.68-23.58-66.31-7-11.05-16.58-18.05-29.47-19.89-14.37-2.21-28.73-.37-43.1,1.84-2.21.37-4.05,1.11-6.26,0-6.26-2.58-12.89-2.95-19.52-2.58-19.89,1.11-39.78,4.05-58.94,11.05-13.26,4.79-23.58,12.89-30.21,25.42-7.37,12.89-12.52,26.89-13.63,41.63-.74,9.21-1.47,18.79-2.21,28-.37,3.32-1.11,4.42-4.79,3.68-4.79-1.11-9.58-1.84-14.37-2.58-19.16-2.95-38.68-7.37-58.57-6.63-26.89,1.11-46.41,18.42-50.83,44.94-4.05,23.94,1.11,46.41,9.21,68.52,10.68,28,30.21,46.41,59.31,54.52,21,5.89,42.36,8.84,65.2,9.21,25.42-.37,50.83-4.79,75.15-15.47,34.99-15.47,69.99-31.68,105.35-46.78,53.05-22.47,103.88-49.36,156.92-71.83,8.1-3.32,15.84-7.37,23.21-11.79,4.79-3.68,4.42-7.74-1.1-9.95ZM176.39,36.36c0-4.42,2.58-8.1,5.16-10.31,2.58-2.58,5.53-4.42,8.47-5.89,5.89-2.95,12.16-4.79,18.42-5.53-5.53,2.95-11.05,5.89-15.84,9.58-2.21,1.84-4.42,3.68-6.26,5.89s-2.58,4.42-2.21,6.26c0,1.11.74,1.84.74,2.95.74.74,1.47,1.84,2.21,2.58,1.47,1.11,3.32,1.84,5.53,2.21,4.79.37,10.68-1.11,16.21-3.32,5.53-1.84,11.42-4.42,16.94-6.63l16.94-7.37c5.89-2.58,11.42-4.79,17.68-7,5.89-1.84,12.16-4.05,18.79-3.68-5.89,1.84-11.42,5.16-16.58,8.1l-16.58,9.58c-10.68,6.26-21.73,12.16-34.26,16.58-6.26,1.84-12.52,4.05-20.26,3.32-3.68-.37-8.1-2.21-11.05-5.53-1.47-1.47-2.21-3.32-2.95-5.16-.74-2.21-1.47-4.42-1.11-6.63ZM258.53,192.92c-22.1,2.58-44.57,3.32-66.67,1.84-11.05-.74-22.1-2.21-33.15-4.05-5.53-1.11-11.05-2.58-16.21-4.42-2.58-1.11-5.53-2.21-8.1-3.68l-1.84-1.11-1.84-1.47c-1.11-1.11-1.84-2.58-2.58-3.68-2.95-5.53-3.68-11.05-4.05-16.94-.37-5.53,0-11.42.74-16.94,1.47-11.05,3.68-22.1,7-32.42-2.21,10.68-4.05,21.73-4.42,32.78-.37,5.53-.37,11.05,0,16.21.74,5.16,1.47,10.68,4.05,15.1l2.21,2.95,1.47,1.11,1.47,1.11c2.21,1.11,4.79,2.21,7.37,2.95,5.16,1.84,10.31,2.95,15.84,4.05,10.68,1.84,21.73,2.95,32.78,3.68,22.1,1.47,43.84,1.11,65.94-.74,11.05-1.11,21.73-2.21,32.78-4.42,10.68-1.84,21.37-4.79,32.05-8.47-21,9.21-42.73,13.63-64.83,16.58ZM296.84,75.41c-8.84,1.84-18.42,2.58-27.63.74-4.42-1.11-9.21-2.95-12.89-6.26-3.68-3.32-6.26-8.47-6.26-13.26,0-10.31,8.1-18.79,16.94-19.89-8.47,3.32-14,11.79-13.26,19.89.37,4.05,2.21,7.37,5.53,9.95,2.95,2.58,7,4.05,11.05,5.16,4.05,1.11,8.47,1.47,12.89,1.11,4.42,0,8.84-.37,13.26-.74,8.84-1.11,17.68-2.95,26.52-4.79-8.47,3.32-17.31,6.26-26.15,8.1Z"/>
  </g>
</svg>